<svg width="21" height="21" viewBox="0 0 21 21" fill="none" xmlns="http://www.w3.org/2000/svg">
<path d="M6.84136 18.3839C14.271 18.3839 18.3339 12.2287 18.3339 6.89137C18.3339 6.71655 18.3303 6.54245 18.3225 6.36932C19.1111 5.79912 19.7965 5.08756 20.3374 4.27765C19.6137 4.59947 18.8347 4.81583 18.0178 4.91371C18.8517 4.41346 19.4919 3.62244 19.7939 2.67949C19.0135 3.14218 18.1491 3.47833 17.2291 3.65989C16.492 2.87477 15.4425 2.38379 14.2805 2.38379C12.05 2.38379 10.241 4.19265 10.241 6.42242C10.241 6.73954 10.2766 7.04776 10.3458 7.34346C6.98873 7.17454 4.01177 5.56735 2.01979 3.12327C1.67304 3.72009 1.47294 4.41358 1.47294 5.15354C1.47294 6.55473 2.18606 7.79206 3.27036 8.51565C2.60769 8.49531 1.98523 8.31339 1.44104 8.01058C1.44043 8.02756 1.44043 8.04406 1.44043 8.06212C1.44043 10.0183 2.83271 11.6517 4.68118 12.0218C4.34166 12.1141 3.98444 12.1638 3.61602 12.1638C3.3562 12.1638 3.10289 12.1383 2.85679 12.091C3.37101 13.6959 4.86226 14.8638 6.63018 14.8965C5.24766 15.9801 3.5061 16.6255 1.61332 16.6255C1.28777 16.6255 0.965945 16.6069 0.64978 16.5696C2.43745 17.7154 4.56018 18.3841 6.84148 18.3841" fill="#FCF6F2"/>
</svg>
