<svg width="18" height="19" viewBox="0 0 18 19" fill="none" xmlns="http://www.w3.org/2000/svg">
<g clip-path="url(#clip0)">
<path d="M12.9879 0.5H4.82059C2.16247 0.5 0 2.68573 0 5.37243V13.6277C0 16.3142 2.16247 18.5 4.82059 18.5H12.988C15.646 18.5 17.8085 16.3142 17.8085 13.6277V5.37243C17.8085 2.68573 15.646 0.5 12.9879 0.5V0.5ZM8.90424 14.4217C6.21922 14.4217 4.03487 12.2139 4.03487 9.49998C4.03487 6.78609 6.21922 4.57825 8.90424 4.57825C11.5893 4.57825 13.7736 6.78609 13.7736 9.49998C13.7736 12.2139 11.5893 14.4217 8.90424 14.4217ZM13.89 5.73896C13.0966 5.73896 12.4512 5.08665 12.4512 4.28465C12.4512 3.48264 13.0966 2.8302 13.89 2.8302C14.6835 2.8302 15.329 3.48264 15.329 4.28465C15.329 5.08665 14.6835 5.73896 13.89 5.73896Z" fill="#FCF6F2"/>
<path d="M8.90428 5.63354C6.79507 5.63354 5.07892 7.36801 5.07892 9.50004C5.07892 11.6319 6.79507 13.3665 8.90428 13.3665C11.0136 13.3665 12.7296 11.6319 12.7296 9.50004C12.7296 7.36801 11.0136 5.63354 8.90428 5.63354Z" fill="#FCF6F2"/>
<path d="M13.8901 3.8855C13.6724 3.8855 13.4952 4.06457 13.4952 4.28458C13.4952 4.50458 13.6724 4.68365 13.8901 4.68365C14.1079 4.68365 14.285 4.50471 14.285 4.28458C14.285 4.06444 14.1079 3.8855 13.8901 3.8855Z" fill="#FCF6F2"/>
</g>
<defs>
<clipPath id="clip0">
<rect width="17.8085" height="18" fill="white" transform="translate(0 0.5)"/>
</clipPath>
</defs>
</svg>
